<svg xmlns="http://www.w3.org/2000/svg" viewBox="0 0 1000 600">
  <!-- Dark background -->
  <rect width="1000" height="600" fill="#0d1117"/>
  
  <!-- GitHub logo pattern - small and subtle -->
  <defs>
    <pattern id="github-pattern" patternUnits="userSpaceOnUse" width="120" height="120" patternTransform="scale(0.15) rotate(0)">
      <!-- GitHub logo - smaller and lower opacity -->
      <path d="M50 12.5c-20.7 0-37.5 16.8-37.5 37.5 0 16.6 10.8 30.7 25.7 35.7 1.9 0.4 2.5-0.8 2.5-1.8 0-0.9 0-3.3 0-6.4-10.5 2.3-12.7-5-12.7-5-1.7-4.3-4.2-5.5-4.2-5.5-3.4-2.3 0.3-2.3 0.3-2.3 3.8 0.3 5.8 3.9 5.8 3.9 3.4 5.8 8.8 4.1 11 3.2 0.3-2.5 1.3-4.1 2.4-5.1-8.3-0.9-17.1-4.2-17.1-18.6 0-4.1 1.5-7.5 3.9-10.1-0.4-0.9-1.7-4.7 0.4-9.8 0 0 3.2-1 10.4 3.9 3-0.8 6.2-1.2 9.4-1.2 3.2 0 6.4 0.4 9.4 1.2 7.2-4.9 10.4-3.9 10.4-3.9 2.1 5.1 0.8 8.9 0.4 9.8 2.4 2.6 3.9 6 3.9 10.1 0 14.4-8.8 17.7-17.1 18.6 1.3 1.2 2.5 3.5 2.5 7 0 5.1 0 9.2 0 10.4 0 1 0.7 2.2 2.6 1.8 14.9-5 25.7-19.1 25.7-35.7 0-20.7-16.8-37.5-37.5-37.5z" fill="#ffffff" fill-opacity="0.03"/>
    </pattern>
  </defs>
  
  <!-- Apply the pattern to the background -->
  <rect width="1000" height="600" fill="url(#github-pattern)"/>
</svg>